<svg width="593" height="325" viewBox="0 0 593 325" fill="none" xmlns="http://www.w3.org/2000/svg">
<g clip-path="url(#clip0_11_116)">
<rect width="593" height="324.032" rx="46.5929" fill="url(#paint0_linear_11_116)"/>
<rect x="42.3572" y="42.3571" width="63.5357" height="46.5929" rx="4.23571" fill="url(#paint1_linear_11_116)"/>
<path d="M55.0643 164.012L50.8074 166.363V165.664L55.0643 168.015L53.8254 170.175L49.7273 167.792L50.1403 167.57L50.1721 172.113H47.7577L47.7895 167.57L48.2025 167.792L44.1362 170.175L42.8655 168.015L47.1541 165.664V166.363L42.8655 164.012L44.1362 161.82L48.2025 164.234L47.7895 164.489L47.7577 159.914H50.1721L50.1403 164.489L49.7273 164.234L53.8254 161.82L55.0643 164.012ZM68.9007 164.012L64.6438 166.363V165.664L68.9007 168.015L67.6618 170.175L63.5637 167.792L63.9767 167.57L64.0085 172.113H61.5941L61.6259 167.57L62.0389 167.792L57.9726 170.175L56.7019 168.015L60.9905 165.664V166.363L56.7019 164.012L57.9726 161.82L62.0389 164.234L61.6259 164.489L61.5941 159.914H64.0085L63.9767 164.489L63.5637 164.234L67.6618 161.82L68.9007 164.012ZM82.7371 164.012L78.4802 166.363V165.664L82.7371 168.015L81.4982 170.175L77.4001 167.792L77.8131 167.57L77.8449 172.113H75.4305L75.4623 167.57L75.8752 167.792L71.809 170.175L70.5382 168.015L74.8269 165.664V166.363L70.5382 164.012L71.809 161.82L75.8752 164.234L75.4623 164.489L75.4305 159.914H77.8449L77.8131 164.489L77.4001 164.234L81.4982 161.82L82.7371 164.012ZM96.5735 164.012L92.3166 166.363V165.664L96.5735 168.015L95.3345 170.175L91.2365 167.792L91.6495 167.57L91.6812 172.113H89.2669L89.2987 167.57L89.7116 167.792L85.6454 170.175L84.3746 168.015L88.6633 165.664V166.363L84.3746 164.012L85.6454 161.82L89.7116 164.234L89.2987 164.489L89.2669 159.914H91.6812L91.6495 164.489L91.2365 164.234L95.3345 161.82L96.5735 164.012ZM118.569 164.012L114.312 166.363V165.664L118.569 168.015L117.33 170.175L113.232 167.792L113.645 167.57L113.677 172.113H111.262L111.294 167.57L111.707 167.792L107.641 170.175L106.37 168.015L110.659 165.664V166.363L106.37 164.012L107.641 161.82L111.707 164.234L111.294 164.489L111.262 159.914H113.677L113.645 164.489L113.232 164.234L117.33 161.82L118.569 164.012ZM132.405 164.012L128.149 166.363V165.664L132.405 168.015L131.166 170.175L127.068 167.792L127.481 167.57L127.513 172.113H125.099L125.131 167.57L125.544 167.792L121.477 170.175L120.207 168.015L124.495 165.664V166.363L120.207 164.012L121.477 161.82L125.544 164.234L125.131 164.489L125.099 159.914H127.513L127.481 164.489L127.068 164.234L131.166 161.82L132.405 164.012ZM146.242 164.012L141.985 166.363V165.664L146.242 168.015L145.003 170.175L140.905 167.792L141.318 167.57L141.35 172.113H138.935L138.967 167.57L139.38 167.792L135.314 170.175L134.043 168.015L138.332 165.664V166.363L134.043 164.012L135.314 161.82L139.38 164.234L138.967 164.489L138.935 159.914H141.35L141.318 164.489L140.905 164.234L145.003 161.82L146.242 164.012ZM160.078 164.012L155.821 166.363V165.664L160.078 168.015L158.839 170.175L154.741 167.792L155.154 167.57L155.186 172.113H152.772L152.803 167.57L153.216 167.792L149.15 170.175L147.879 168.015L152.168 165.664V166.363L147.879 164.012L149.15 161.82L153.216 164.234L152.803 164.489L152.772 159.914H155.186L155.154 164.489L154.741 164.234L158.839 161.82L160.078 164.012ZM182.074 164.012L177.817 166.363V165.664L182.074 168.015L180.835 170.175L176.737 167.792L177.15 167.57L177.181 172.113H174.767L174.799 167.57L175.212 167.792L171.146 170.175L169.875 168.015L174.164 165.664V166.363L169.875 164.012L171.146 161.82L175.212 164.234L174.799 164.489L174.767 159.914H177.181L177.15 164.489L176.737 164.234L180.835 161.82L182.074 164.012ZM195.91 164.012L191.653 166.363V165.664L195.91 168.015L194.671 170.175L190.573 167.792L190.986 167.57L191.018 172.113H188.603L188.635 167.57L189.048 167.792L184.982 170.175L183.711 168.015L188 165.664V166.363L183.711 164.012L184.982 161.82L189.048 164.234L188.635 164.489L188.603 159.914H191.018L190.986 164.489L190.573 164.234L194.671 161.82L195.91 164.012ZM209.746 164.012L205.49 166.363V165.664L209.746 168.015L208.508 170.175L204.409 167.792L204.822 167.57L204.854 172.113H202.44L202.472 167.57L202.885 167.792L198.818 170.175L197.548 168.015L201.836 165.664V166.363L197.548 164.012L198.818 161.82L202.885 164.234L202.472 164.489L202.44 159.914H204.854L204.822 164.489L204.409 164.234L208.508 161.82L209.746 164.012ZM223.583 164.012L219.326 166.363V165.664L223.583 168.015L222.344 170.175L218.246 167.792L218.659 167.57L218.691 172.113H216.276L216.308 167.57L216.721 167.792L212.655 170.175L211.384 168.015L215.673 165.664V166.363L211.384 164.012L212.655 161.82L216.721 164.234L216.308 164.489L216.276 159.914H218.691L218.659 164.489L218.246 164.234L222.344 161.82L223.583 164.012ZM245.578 164.012L241.322 166.363V165.664L245.578 168.015L244.339 170.175L240.241 167.792L240.654 167.57L240.686 172.113H238.272L238.304 167.57L238.717 167.792L234.65 170.175L233.38 168.015L237.668 165.664V166.363L233.38 164.012L234.65 161.82L238.717 164.234L238.304 164.489L238.272 159.914H240.686L240.654 164.489L240.241 164.234L244.339 161.82L245.578 164.012ZM259.415 164.012L255.158 166.363V165.664L259.415 168.015L258.176 170.175L254.078 167.792L254.491 167.57L254.523 172.113H252.108L252.14 167.57L252.553 167.792L248.487 170.175L247.216 168.015L251.505 165.664V166.363L247.216 164.012L248.487 161.82L252.553 164.234L252.14 164.489L252.108 159.914H254.523L254.491 164.489L254.078 164.234L258.176 161.82L259.415 164.012ZM273.251 164.012L268.994 166.363V165.664L273.251 168.015L272.012 170.175L267.914 167.792L268.327 167.57L268.359 172.113H265.945L265.976 167.57L266.389 167.792L262.323 170.175L261.052 168.015L265.341 165.664V166.363L261.052 164.012L262.323 161.82L266.389 164.234L265.976 164.489L265.945 159.914H268.359L268.327 164.489L267.914 164.234L272.012 161.82L273.251 164.012ZM287.088 164.012L282.831 166.363V165.664L287.088 168.015L285.849 170.175L281.751 167.792L282.164 167.57L282.195 172.113H279.781L279.813 167.57L280.226 167.792L276.159 170.175L274.889 168.015L279.177 165.664V166.363L274.889 164.012L276.159 161.82L280.226 164.234L279.813 164.489L279.781 159.914H282.195L282.164 164.489L281.751 164.234L285.849 161.82L287.088 164.012Z" fill="#FDFDFD"/>
<g filter="url(#filter0_b_11_116)">
<rect width="593" height="84.8286" transform="translate(0.5 239.171)" fill="#FDFDFD" fill-opacity="0.15"/>
<g clip-path="url(#clip1_11_116)">
<path d="M531.829 294.449H517.518V268.73H531.829L531.829 294.449Z" fill="#FF5F00"/>
<path d="M518.425 281.59C518.425 276.373 520.868 271.725 524.672 268.73C521.792 266.46 518.231 265.228 514.564 265.233C505.531 265.233 498.209 272.556 498.209 281.59C498.209 290.624 505.531 297.947 514.564 297.947C518.231 297.952 521.792 296.72 524.672 294.45C520.868 291.455 518.425 286.807 518.425 281.59Z" fill="#EB001B"/>
<path d="M551.136 281.59C551.136 290.624 543.814 297.947 534.781 297.947C531.114 297.952 527.552 296.72 524.672 294.45C528.477 291.455 530.92 286.807 530.92 281.59C530.92 276.373 528.477 271.726 524.672 268.731C527.552 266.46 531.114 265.228 534.781 265.233C543.814 265.233 551.136 272.556 551.136 281.59" fill="#F79E1B"/>
</g>
</g>
</g>
<defs>
<filter id="filter0_b_11_116" x="-20.6786" y="217.993" width="635.357" height="127.186" filterUnits="userSpaceOnUse" color-interpolation-filters="sRGB">
<feFlood flood-opacity="0" result="BackgroundImageFix"/>
<feGaussianBlur in="BackgroundImageFix" stdDeviation="10.5893"/>
<feComposite in2="SourceAlpha" operator="in" result="effect1_backgroundBlur_11_116"/>
<feBlend mode="normal" in="SourceGraphic" in2="effect1_backgroundBlur_11_116" result="shape"/>
</filter>
<linearGradient id="paint0_linear_11_116" x1="618.234" y1="-13.7661" x2="-25.2678" y2="340.268" gradientUnits="userSpaceOnUse">
<stop stop-color="#44325A"/>
<stop offset="1" stop-color="#865145"/>
</linearGradient>
<linearGradient id="paint1_linear_11_116" x1="112.246" y1="38.1214" x2="33.8858" y2="95.3036" gradientUnits="userSpaceOnUse">
<stop stop-color="#E2E0DD"/>
<stop offset="1" stop-color="#807E7B"/>
</linearGradient>
<clipPath id="clip0_11_116">
<rect width="593" height="324.032" rx="46.5929" fill="white"/>
</clipPath>
<clipPath id="clip1_11_116">
<rect width="52.9464" height="32.731" fill="white" transform="translate(498.196 265.22)"/>
</clipPath>
</defs>
</svg>
